<mxfile host="app.diagrams.net" agent="Mozilla/5.0 (Windows NT 10.0; Win64; x64) AppleWebKit/537.36 (KHTML, like Gecko) Chrome/131.0.0.0 Safari/537.36 OPR/116.0.0.0" version="26.0.16">
  <diagram name="PÃ¡gina-1" id="gCiFRmp27H7DDl0XEYFt">
    <mxGraphModel dx="1392" dy="753" grid="1" gridSize="10" guides="1" tooltips="1" connect="1" arrows="1" fold="1" page="1" pageScale="1" pageWidth="827" pageHeight="1169" math="0" shadow="0">
      <root>
        <mxCell id="0" />
        <mxCell id="1" parent="0" />
        <mxCell id="DhLischpG_Z5XxXKOzdM-1" value="Funcionario" style="swimlane;fontStyle=1;align=center;verticalAlign=top;childLayout=stackLayout;horizontal=1;startSize=26;horizontalStack=0;resizeParent=1;resizeParentMax=0;resizeLast=0;collapsible=1;marginBottom=0;whiteSpace=wrap;html=1;fillColor=#e6d0de;strokeColor=#996185;gradientColor=#d5739d;rounded=1;" vertex="1" parent="1">
          <mxGeometry x="670" y="220" width="210" height="216" as="geometry" />
        </mxCell>
        <mxCell id="DhLischpG_Z5XxXKOzdM-2" value="- nome: String" style="text;strokeColor=#996185;fillColor=#e6d0de;align=left;verticalAlign=top;spacingLeft=4;spacingRight=4;overflow=hidden;rotatable=0;points=[[0,0.5],[1,0.5]];portConstraint=eastwest;whiteSpace=wrap;html=1;gradientColor=#d5739d;rounded=1;" vertex="1" parent="DhLischpG_Z5XxXKOzdM-1">
          <mxGeometry y="26" width="210" height="26" as="geometry" />
        </mxCell>
        <mxCell id="DhLischpG_Z5XxXKOzdM-3" value="- nota1:double" style="text;strokeColor=#996185;fillColor=#e6d0de;align=left;verticalAlign=top;spacingLeft=4;spacingRight=4;overflow=hidden;rotatable=0;points=[[0,0.5],[1,0.5]];portConstraint=eastwest;whiteSpace=wrap;html=1;gradientColor=#d5739d;rounded=1;" vertex="1" parent="DhLischpG_Z5XxXKOzdM-1">
          <mxGeometry y="52" width="210" height="26" as="geometry" />
        </mxCell>
        <mxCell id="DhLischpG_Z5XxXKOzdM-17" value="- nota2: double" style="text;strokeColor=#996185;fillColor=#e6d0de;align=left;verticalAlign=top;spacingLeft=4;spacingRight=4;overflow=hidden;rotatable=0;points=[[0,0.5],[1,0.5]];portConstraint=eastwest;whiteSpace=wrap;html=1;gradientColor=#d5739d;rounded=1;" vertex="1" parent="DhLischpG_Z5XxXKOzdM-1">
          <mxGeometry y="78" width="210" height="26" as="geometry" />
        </mxCell>
        <mxCell id="DhLischpG_Z5XxXKOzdM-4" value="- nota3: double" style="text;strokeColor=#996185;fillColor=#e6d0de;align=left;verticalAlign=top;spacingLeft=4;spacingRight=4;overflow=hidden;rotatable=0;points=[[0,0.5],[1,0.5]];portConstraint=eastwest;whiteSpace=wrap;html=1;gradientColor=#d5739d;rounded=1;" vertex="1" parent="DhLischpG_Z5XxXKOzdM-1">
          <mxGeometry y="104" width="210" height="26" as="geometry" />
        </mxCell>
        <mxCell id="DhLischpG_Z5XxXKOzdM-5" value="" style="line;strokeWidth=1;fillColor=#e6d0de;align=left;verticalAlign=middle;spacingTop=-1;spacingLeft=3;spacingRight=3;rotatable=0;labelPosition=right;points=[];portConstraint=eastwest;strokeColor=#996185;gradientColor=#d5739d;rounded=1;" vertex="1" parent="DhLischpG_Z5XxXKOzdM-1">
          <mxGeometry y="130" width="210" height="8" as="geometry" />
        </mxCell>
        <mxCell id="DhLischpG_Z5XxXKOzdM-6" value="+ Estudante(n, n1, n2, n3)" style="text;strokeColor=#996185;fillColor=#e6d0de;align=left;verticalAlign=top;spacingLeft=4;spacingRight=4;overflow=hidden;rotatable=0;points=[[0,0.5],[1,0.5]];portConstraint=eastwest;whiteSpace=wrap;html=1;gradientColor=#d5739d;rounded=1;" vertex="1" parent="DhLischpG_Z5XxXKOzdM-1">
          <mxGeometry y="138" width="210" height="26" as="geometry" />
        </mxCell>
        <mxCell id="DhLischpG_Z5XxXKOzdM-7" value="+ calcularNotaFinal(): double" style="text;strokeColor=#996185;fillColor=#e6d0de;align=left;verticalAlign=top;spacingLeft=4;spacingRight=4;overflow=hidden;rotatable=0;points=[[0,0.5],[1,0.5]];portConstraint=eastwest;whiteSpace=wrap;html=1;gradientColor=#d5739d;rounded=1;" vertex="1" parent="DhLischpG_Z5XxXKOzdM-1">
          <mxGeometry y="164" width="210" height="26" as="geometry" />
        </mxCell>
        <mxCell id="DhLischpG_Z5XxXKOzdM-8" value="+ calcularPontosFaltantes(): double" style="text;strokeColor=#996185;fillColor=#e6d0de;align=left;verticalAlign=top;spacingLeft=4;spacingRight=4;overflow=hidden;rotatable=0;points=[[0,0.5],[1,0.5]];portConstraint=eastwest;whiteSpace=wrap;html=1;gradientColor=#d5739d;rounded=1;" vertex="1" parent="DhLischpG_Z5XxXKOzdM-1">
          <mxGeometry y="190" width="210" height="26" as="geometry" />
        </mxCell>
      </root>
    </mxGraphModel>
  </diagram>
</mxfile>
